<svg width="1000" height="1000" viewBox="0 0 1000 1000" fill="none" xmlns="http://www.w3.org/2000/svg">
<g filter="url(#filter0_d_27_9)">
<path d="M100 900H95V905H100V900ZM950 900L900 871.132V928.867L950 900ZM100 50L71.1325 100H128.868L100 50ZM100 905C101.034 905 102.066 905 103.098 905C104.129 905 105.159 905 106.188 905C107.216 905 108.244 905 109.27 905C110.296 905 111.321 905 112.345 905C113.368 905 114.391 905 115.412 905C116.433 905 117.452 905 118.471 905C119.489 905 120.507 905 121.522 905C122.538 905 123.553 905 124.566 905C125.58 905 126.592 905 127.603 905C128.613 905 129.623 905 130.631 905C131.64 905 132.647 905 133.652 905C134.658 905 135.662 905 136.666 905C137.669 905 138.671 905 139.671 905C140.672 905 141.672 905 142.67 905C143.668 905 144.665 905 145.66 905C146.656 905 147.65 905 148.643 905C149.636 905 150.628 905 151.619 905C152.609 905 153.599 905 154.587 905C155.575 905 156.561 905 157.547 905C158.533 905 159.517 905 160.5 905C161.483 905 162.465 905 163.445 905C164.426 905 165.405 905 166.383 905C167.361 905 168.338 905 169.313 905C170.289 905 171.263 905 172.236 905C173.209 905 174.181 905 175.151 905C176.122 905 177.091 905 178.059 905C179.027 905 179.994 905 180.96 905C181.925 905 182.889 905 183.852 905C184.816 905 185.777 905 186.738 905C187.699 905 188.658 905 189.616 905C190.574 905 191.531 905 192.487 905C193.442 905 194.397 905 195.35 905C196.303 905 197.255 905 198.206 905C199.156 905 200.106 905 201.054 905C202.002 905 202.949 905 203.895 905C204.841 905 205.786 905 206.729 905C207.672 905 208.614 905 209.555 905C210.496 905 211.436 905 212.374 905C213.313 905 214.25 905 215.186 905C216.122 905 217.057 905 217.99 905C218.924 905 219.856 905 220.787 905C221.718 905 222.648 905 223.577 905C224.505 905 225.433 905 226.359 905C227.285 905 228.21 905 229.134 905C230.058 905 230.981 905 231.902 905C232.823 905 233.744 905 234.663 905C235.582 905 236.499 905 237.416 905C238.332 905 239.248 905 240.162 905C241.076 905 241.989 905 242.901 905C243.812 905 244.723 905 245.632 905C246.542 905 247.45 905 248.357 905C249.264 905 250.169 905 251.074 905C251.978 905 252.882 905 253.784 905C254.686 905 255.587 905 256.487 905C257.386 905 258.285 905 259.182 905C260.079 905 260.976 905 261.871 905C262.766 905 263.659 905 264.552 905C265.444 905 266.336 905 267.226 905C268.116 905 269.005 905 269.893 905C270.781 905 271.667 905 272.553 905C273.438 905 274.323 905 275.206 905C276.089 905 276.971 905 277.851 905C278.732 905 279.612 905 280.49 905C281.368 905 282.245 905 283.121 905C283.997 905 284.872 905 285.746 905C286.62 905 287.492 905 288.363 905C289.235 905 290.105 905 290.974 905C291.842 905 292.71 905 293.577 905C294.443 905 295.309 905 296.173 905C297.037 905 297.9 905 298.762 905C299.624 905 300.485 905 301.345 905C302.204 905 303.062 905 303.92 905C304.777 905 305.633 905 306.488 905C307.343 905 308.197 905 309.049 905C309.902 905 310.753 905 311.604 905C312.454 905 313.303 905 314.151 905C314.999 905 315.846 905 316.691 905C317.537 905 318.381 905 319.225 905C320.068 905 320.91 905 321.751 905C322.592 905 323.432 905 324.271 905C325.109 905 325.947 905 326.783 905C327.62 905 328.455 905 329.289 905C330.123 905 330.956 905 331.788 905C332.62 905 333.451 905 334.28 905C335.11 905 335.938 905 336.765 905C337.593 905 338.419 905 339.244 905C340.069 905 340.892 905 341.715 905C342.538 905 343.359 905 344.18 905C345 905 345.819 905 346.637 905C347.456 905 348.273 905 349.088 905C349.904 905 350.719 905 351.533 905C352.346 905 353.159 905 353.97 905C354.781 905 355.592 905 356.401 905C357.21 905 358.018 905 358.824 905C359.631 905 360.437 905 361.242 905C362.046 905 362.85 905 363.652 905C364.454 905 365.255 905 366.055 905C366.856 905 367.654 905 368.452 905C369.25 905 370.047 905 370.842 905C371.638 905 372.432 905 373.226 905C374.019 905 374.811 905 375.603 905C376.394 905 377.184 905 377.973 905C378.761 905 379.549 905 380.336 905C381.123 905 381.908 905 382.693 905C383.477 905 384.26 905 385.043 905C385.825 905 386.606 905 387.386 905C388.166 905 388.945 905 389.723 905C390.5 905 391.277 905 392.053 905C392.828 905 393.603 905 394.376 905C395.15 905 395.922 905 396.693 905C397.464 905 398.234 905 399.003 905C399.772 905 400.54 905 401.307 905C402.074 905 402.84 905 403.604 905C404.369 905 405.132 905 405.895 905C406.657 905 407.418 905 408.179 905C408.939 905 409.698 905 410.456 905C411.214 905 411.971 905 412.727 905C413.483 905 414.238 905 414.991 905C415.745 905 416.498 905 417.249 905C418.001 905 418.751 905 419.5 905C420.25 905 420.998 905 421.745 905C422.493 905 423.239 905 423.984 905C424.729 905 425.473 905 426.216 905C426.958 905 427.7 905 428.441 905C429.182 905 429.921 905 430.66 905C431.399 905 432.136 905 432.872 905C433.609 905 434.344 905 435.079 905C435.813 905 436.546 905 437.278 905C438.01 905 438.742 905 439.472 905C440.202 905 440.931 905 441.658 905C442.386 905 443.113 905 443.839 905C444.565 905 445.289 905 446.013 905C446.737 905 447.459 905 448.181 905C448.902 905 449.623 905 450.342 905C451.061 905 451.78 905 452.497 905C453.214 905 453.93 905 454.646 905C455.361 905 456.075 905 456.788 905C457.501 905 458.213 905 458.924 905C459.635 905 460.345 905 461.054 905C461.762 905 462.47 905 463.177 905C463.884 905 464.589 905 465.294 905C465.999 905 466.702 905 467.405 905C468.108 905 468.809 905 469.51 905C470.21 905 470.909 905 471.608 905C472.306 905 473.004 905 473.7 905C474.396 905 475.091 905 475.786 905C476.48 905 477.173 905 477.865 905C478.557 905 479.249 905 479.939 905C480.629 905 481.318 905 482.006 905C482.694 905 483.381 905 484.067 905C484.753 905 485.438 905 486.121 905C486.805 905 487.488 905 488.17 905C488.852 905 489.533 905 490.213 905C490.892 905 491.571 905 492.249 905C492.927 905 493.603 905 494.279 905C494.955 905 495.629 905 496.303 905C496.977 905 497.649 905 498.321 905C498.992 905 499.663 905 500.333 905C501.002 905 501.671 905 502.338 905C503.006 905 503.672 905 504.338 905C505.003 905 505.668 905 506.331 905C506.995 905 507.657 905 508.319 905C508.98 905 509.641 905 510.3 905C510.959 905 511.618 905 512.275 905C512.933 905 513.589 905 514.245 905C514.9 905 515.554 905 516.208 905C516.861 905 517.513 905 518.165 905C518.816 905 519.467 905 520.116 905C520.765 905 521.414 905 522.061 905C522.709 905 523.355 905 524 905C524.646 905 525.29 905 525.934 905C526.577 905 527.219 905 527.861 905C528.502 905 529.143 905 529.782 905C530.422 905 531.06 905 531.697 905C532.335 905 532.971 905 533.607 905C534.242 905 534.877 905 535.51 905C536.144 905 536.776 905 537.408 905C538.039 905 538.67 905 539.299 905C539.929 905 540.558 905 541.185 905C541.813 905 542.439 905 543.065 905C543.691 905 544.315 905 544.939 905C545.563 905 546.185 905 546.807 905C547.429 905 548.049 905 548.669 905C549.289 905 549.908 905 550.526 905C551.143 905 551.76 905 552.376 905C552.992 905 553.607 905 554.221 905C554.835 905 555.448 905 556.06 905C556.672 905 557.283 905 557.893 905C558.503 905 559.112 905 559.72 905C560.328 905 560.936 905 561.542 905C562.148 905 562.753 905 563.357 905C563.962 905 564.565 905 565.167 905C565.77 905 566.371 905 566.972 905C567.572 905 568.172 905 568.77 905C569.369 905 569.966 905 570.563 905C571.16 905 571.755 905 572.35 905C572.945 905 573.538 905 574.131 905C574.724 905 575.316 905 575.907 905C576.498 905 577.088 905 577.677 905C578.266 905 578.854 905 579.441 905C580.028 905 580.614 905 581.2 905C581.785 905 582.369 905 582.952 905C583.536 905 584.118 905 584.7 905C585.281 905 585.862 905 586.441 905C587.021 905 587.6 905 588.177 905C588.755 905 589.332 905 589.908 905C590.483 905 591.058 905 591.632 905C592.206 905 592.779 905 593.352 905C593.924 905 594.495 905 595.065 905C595.635 905 596.205 905 596.773 905C597.341 905 597.909 905 598.475 905C599.042 905 599.608 905 600.172 905C600.737 905 601.301 905 601.864 905C602.426 905 602.988 905 603.549 905C604.11 905 604.67 905 605.23 905C605.789 905 606.347 905 606.904 905C607.462 905 608.018 905 608.573 905C609.129 905 609.684 905 610.237 905C610.791 905 611.344 905 611.895 905C612.447 905 612.998 905 613.548 905C614.098 905 614.647 905 615.195 905C615.744 905 616.291 905 616.837 905C617.384 905 617.929 905 618.474 905C619.018 905 619.562 905 620.104 905C620.647 905 621.189 905 621.73 905C622.271 905 622.811 905 623.35 905C623.889 905 624.427 905 624.965 905C625.502 905 626.039 905 626.574 905C627.11 905 627.644 905 628.178 905C628.712 905 629.245 905 629.777 905C630.309 905 630.84 905 631.37 905C631.9 905 632.429 905 632.958 905C633.486 905 634.013 905 634.54 905C635.067 905 635.592 905 636.117 905C636.642 905 637.166 905 637.689 905C638.212 905 638.734 905 639.255 905C639.777 905 640.297 905 640.817 905C641.336 905 641.855 905 642.373 905C642.89 905 643.407 905 643.923 905C644.439 905 644.954 905 645.469 905C645.983 905 646.496 905 647.009 905C647.521 905 648.033 905 648.544 905C649.054 905 649.564 905 650.073 905C650.582 905 651.09 905 651.598 905C652.105 905 652.611 905 653.117 905C653.622 905 654.127 905 654.631 905C655.135 905 655.637 905 656.139 905C656.642 905 657.143 905 657.643 905C658.143 905 658.643 905 659.141 905C659.64 905 660.138 905 660.635 905C661.132 905 661.628 905 662.123 905C662.618 905 663.112 905 663.606 905C664.099 905 664.592 905 665.083 905C665.575 905 666.066 905 666.556 905C667.046 905 667.535 905 668.024 905C668.512 905 668.999 905 669.486 905C669.973 905 670.458 905 670.943 905C671.428 905 671.912 905 672.396 905C672.879 905 673.361 905 673.843 905C674.324 905 674.805 905 675.285 905C675.765 905 676.244 905 676.722 905C677.2 905 677.677 905 678.154 905C678.63 905 679.106 905 679.581 905C680.056 905 680.53 905 681.003 905C681.476 905 681.948 905 682.42 905C682.891 905 683.362 905 683.832 905C684.302 905 684.771 905 685.239 905C685.707 905 686.174 905 686.641 905C687.107 905 687.573 905 688.038 905C688.502 905 688.966 905 689.43 905C689.893 905 690.355 905 690.817 905C691.278 905 691.739 905 692.199 905C692.659 905 693.118 905 693.576 905C694.034 905 694.492 905 694.948 905C695.405 905 695.861 905 696.316 905C696.771 905 697.225 905 697.678 905C698.131 905 698.584 905 699.036 905C699.487 905 699.938 905 700.388 905C700.838 905 701.288 905 701.736 905C702.185 905 702.632 905 703.079 905C703.526 905 703.972 905 704.417 905C704.862 905 705.307 905 705.75 905C706.194 905 706.637 905 707.079 905C707.521 905 707.962 905 708.403 905C708.843 905 709.283 905 709.721 905C710.16 905 710.598 905 711.035 905C711.473 905 711.909 905 712.345 905C712.78 905 713.215 905 713.649 905C714.083 905 714.516 905 714.949 905C715.381 905 715.813 905 716.244 905C716.675 905 717.105 905 717.534 905C717.963 905 718.392 905 718.819 905C719.247 905 719.674 905 720.1 905C720.526 905 720.952 905 721.376 905C721.801 905 722.224 905 722.647 905C723.07 905 723.493 905 723.914 905C724.335 905 724.756 905 725.176 905C725.596 905 726.015 905 726.433 905C726.852 905 727.269 905 727.686 905C728.103 905 728.518 905 728.934 905C729.349 905 729.763 905 730.177 905C730.591 905 731.004 905 731.416 905C731.828 905 732.239 905 732.65 905C733.06 905 733.47 905 733.879 905C734.288 905 734.696 905 735.104 905C735.511 905 735.918 905 736.324 905C736.73 905 737.135 905 737.54 905C737.944 905 738.348 905 738.751 905C739.154 905 739.556 905 739.957 905C740.359 905 740.759 905 741.159 905C741.559 905 741.958 905 742.357 905C742.755 905 743.153 905 743.55 905C743.947 905 744.343 905 744.738 905C745.133 905 745.528 905 745.922 905C746.316 905 746.709 905 747.101 905C747.494 905 747.885 905 748.276 905C748.667 905 749.057 905 749.447 905C749.836 905 750.225 905 750.612 905C751 905 751.388 905 751.774 905C752.16 905 752.546 905 752.931 905C753.316 905 753.7 905 754.083 905C754.467 905 754.85 905 755.232 905C755.614 905 755.995 905 756.375 905C756.756 905 757.136 905 757.515 905C757.894 905 758.272 905 758.65 905C759.027 905 759.404 905 759.78 905C760.156 905 760.532 905 760.906 905C761.281 905 761.655 905 762.028 905C762.401 905 762.774 905 763.146 905C763.517 905 763.888 905 764.259 905C764.629 905 764.999 905 765.367 905C765.736 905 766.104 905 766.472 905C766.839 905 767.206 905 767.572 905C767.938 905 768.303 905 768.668 905C769.032 905 769.396 905 769.759 905C770.123 905 770.485 905 770.847 905C771.208 905 771.569 905 771.93 905C772.29 905 772.65 905 773.008 905C773.367 905 773.725 905 774.083 905C774.44 905 774.797 905 775.153 905C775.509 905 775.864 905 776.219 905C776.574 905 776.928 905 777.281 905C777.634 905 777.987 905 778.338 905C778.69 905 779.041 905 779.392 905C779.742 905 780.092 905 780.441 905C780.79 905 781.138 905 781.486 905C781.833 905 782.18 905 782.527 905C782.873 905 783.219 905 783.563 905C783.908 905 784.252 905 784.596 905C784.939 905 785.282 905 785.624 905C785.966 905 786.308 905 786.648 905C786.989 905 787.329 905 787.669 905C788.008 905 788.347 905 788.685 905C789.023 905 789.36 905 789.696 905C790.033 905 790.369 905 790.704 905C791.04 905 791.374 905 791.708 905C792.042 905 792.375 905 792.708 905C793.04 905 793.372 905 793.703 905C794.035 905 794.365 905 794.695 905C795.025 905 795.354 905 795.682 905C796.011 905 796.339 905 796.666 905C796.993 905 797.32 905 797.645 905C797.971 905 798.296 905 798.621 905C798.945 905 799.269 905 799.592 905C799.916 905 800.238 905 800.56 905C800.882 905 801.203 905 801.523 905C801.844 905 802.164 905 802.483 905C802.802 905 803.121 905 803.439 905C803.757 905 804.074 905 804.39 905C804.707 905 805.023 905 805.338 905C805.653 905 805.968 905 806.282 905C806.596 905 806.909 905 807.222 905C807.534 905 807.846 905 808.158 905C808.469 905 808.78 905 809.09 905C809.4 905 809.709 905 810.018 905C810.327 905 810.635 905 810.943 905C811.25 905 811.557 905 811.863 905C812.169 905 812.475 905 812.78 905C813.085 905 813.389 905 813.692 905C813.996 905 814.299 905 814.601 905C814.904 905 815.205 905 815.507 905C815.808 905 816.108 905 816.408 905C816.708 905 817.007 905 817.305 905C817.604 905 817.902 905 818.199 905C818.496 905 818.793 905 819.089 905C819.385 905 819.681 905 819.975 905C820.27 905 820.564 905 820.858 905C821.151 905 821.444 905 821.736 905C822.029 905 822.32 905 822.611 905C822.902 905 823.193 905 823.483 905C823.772 905 824.062 905 824.35 905C824.639 905 824.927 905 825.214 905C825.501 905 825.788 905 826.074 905C826.36 905 826.646 905 826.93 905C827.215 905 827.5 905 827.783 905C828.067 905 828.35 905 828.632 905C828.915 905 829.197 905 829.478 905C829.759 905 830.04 905 830.32 905C830.599 905 830.879 905 831.158 905C831.436 905 831.715 905 831.992 905C832.27 905 832.547 905 832.823 905C833.099 905 833.375 905 833.65 905C833.926 905 834.2 905 834.474 905C834.748 905 835.021 905 835.294 905C835.567 905 835.839 905 836.111 905C836.382 905 836.653 905 836.924 905C837.194 905 837.464 905 837.733 905C838.002 905 838.271 905 838.539 905C838.807 905 839.075 905 839.341 905C839.608 905 839.875 905 840.14 905C840.406 905 840.671 905 840.936 905C841.2 905 841.464 905 841.727 905C841.991 905 842.253 905 842.516 905C842.778 905 843.039 905 843.301 905C843.562 905 843.822 905 844.082 905C844.342 905 844.601 905 844.86 905C845.119 905 845.377 905 845.634 905C845.892 905 846.149 905 846.405 905C846.662 905 846.918 905 847.173 905C847.428 905 847.683 905 847.937 905C848.191 905 848.445 905 848.698 905C848.951 905 849.203 905 849.455 905C849.707 905 849.958 905 850.209 905C850.46 905 850.71 905 850.96 905C851.209 905 851.459 905 851.707 905C851.956 905 852.204 905 852.451 905C852.698 905 852.945 905 853.192 905C853.438 905 853.684 905 853.929 905C854.174 905 854.419 905 854.663 905C854.907 905 855.15 905 855.393 905C855.636 905 855.878 905 856.12 905C856.362 905 856.604 905 856.844 905C857.085 905 857.325 905 857.565 905C857.805 905 858.044 905 858.282 905C858.521 905 858.759 905 858.997 905C859.234 905 859.471 905 859.707 905C859.944 905 860.18 905 860.415 905C860.65 905 860.885 905 861.119 905C861.354 905 861.587 905 861.821 905C862.054 905 862.286 905 862.519 905C862.751 905 862.982 905 863.213 905C863.444 905 863.675 905 863.905 905C864.135 905 864.364 905 864.593 905C864.822 905 865.051 905 865.278 905C865.506 905 865.734 905 865.96 905C866.187 905 866.414 905 866.639 905C866.865 905 867.09 905 867.315 905C867.54 905 867.764 905 867.988 905C868.211 905 868.435 905 868.657 905C868.88 905 869.102 905 869.324 905C869.545 905 869.766 905 869.987 905C870.208 905 870.428 905 870.647 905C870.867 905 871.086 905 871.304 905C871.523 905 871.741 905 871.958 905C872.176 905 872.393 905 872.609 905C872.826 905 873.042 905 873.257 905C873.473 905 873.688 905 873.902 905C874.117 905 874.331 905 874.544 905C874.757 905 874.97 905 875.183 905C875.395 905 875.607 905 875.819 905C876.03 905 876.241 905 876.452 905C876.662 905 876.872 905 877.081 905C877.291 905 877.5 905 877.708 905C877.917 905 878.125 905 878.332 905C878.54 905 878.747 905 878.953 905C879.16 905 879.366 905 879.571 905C879.777 905 879.982 905 880.186 905C880.391 905 880.595 905 880.798 905C881.002 905 881.205 905 881.408 905C881.61 905 881.812 905 882.014 905C882.216 905 882.417 905 882.617 905C882.818 905 883.018 905 883.218 905C883.418 905 883.617 905 883.816 905C884.015 905 884.213 905 884.411 905C884.608 905 884.806 905 885.003 905C885.199 905 885.396 905 885.592 905C885.788 905 885.983 905 886.178 905C886.373 905 886.567 905 886.761 905C886.955 905 887.149 905 887.342 905C887.535 905 887.728 905 887.92 905C888.112 905 888.304 905 888.495 905C888.686 905 888.877 905 889.067 905C889.258 905 889.447 905 889.637 905C889.826 905 890.015 905 890.204 905C890.392 905 890.58 905 890.768 905C890.955 905 891.142 905 891.329 905C891.516 905 891.702 905 891.887 905C892.073 905 892.258 905 892.443 905C892.628 905 892.812 905 892.996 905C893.18 905 893.364 905 893.547 905C893.73 905 893.912 905 894.094 905C894.277 905 894.458 905 894.639 905C894.821 905 895.001 905 895.182 905C895.362 905 895.542 905 895.722 905C895.901 905 896.08 905 896.259 905C896.437 905 896.615 905 896.793 905C896.971 905 897.148 905 897.325 905C897.502 905 897.678 905 897.854 905C898.03 905 898.206 905 898.381 905C898.556 905 898.73 905 898.905 905C899.079 905 899.253 905 899.426 905C899.599 905 899.772 905 899.945 905C900.117 905 900.289 905 900.461 905C900.633 905 900.804 905 900.975 905C901.146 905 901.316 905 901.486 905C901.656 905 901.825 905 901.995 905C902.164 905 902.332 905 902.501 905C902.669 905 902.837 905 903.004 905C903.172 905 903.339 905 903.505 905C903.672 905 903.838 905 904.004 905C904.17 905 904.335 905 904.5 905C904.665 905 904.829 905 904.994 905V895C904.829 895 904.665 895 904.5 895C904.335 895 904.17 895 904.004 895C903.838 895 903.672 895 903.505 895C903.339 895 903.172 895 903.004 895C902.837 895 902.669 895 902.501 895C902.332 895 902.164 895 901.995 895C901.825 895 901.656 895 901.486 895C901.316 895 901.146 895 900.975 895C900.804 895 900.633 895 900.461 895C900.289 895 900.117 895 899.945 895C899.772 895 899.599 895 899.426 895C899.253 895 899.079 895 898.905 895C898.73 895 898.556 895 898.381 895C898.206 895 898.03 895 897.854 895C897.678 895 897.502 895 897.325 895C897.148 895 896.971 895 896.793 895C896.615 895 896.437 895 896.259 895C896.08 895 895.901 895 895.722 895C895.542 895 895.362 895 895.182 895C895.001 895 894.821 895 894.639 895C894.458 895 894.277 895 894.094 895C893.912 895 893.73 895 893.547 895C893.364 895 893.18 895 892.996 895C892.812 895 892.628 895 892.443 895C892.258 895 892.073 895 891.887 895C891.702 895 891.516 895 891.329 895C891.142 895 890.955 895 890.768 895C890.58 895 890.392 895 890.204 895C890.015 895 889.826 895 889.637 895C889.447 895 889.258 895 889.067 895C888.877 895 888.686 895 888.495 895C888.304 895 888.112 895 887.92 895C887.728 895 887.535 895 887.342 895C887.149 895 886.955 895 886.761 895C886.567 895 886.373 895 886.178 895C885.983 895 885.788 895 885.592 895C885.396 895 885.199 895 885.003 895C884.806 895 884.608 895 884.411 895C884.213 895 884.015 895 883.816 895C883.617 895 883.418 895 883.218 895C883.018 895 882.818 895 882.617 895C882.417 895 882.216 895 882.014 895C881.812 895 881.61 895 881.408 895C881.205 895 881.002 895 880.798 895C880.595 895 880.391 895 880.186 895C879.982 895 879.777 895 879.571 895C879.366 895 879.16 895 878.953 895C878.747 895 878.54 895 878.332 895C878.125 895 877.917 895 877.708 895C877.5 895 877.291 895 877.081 895C876.872 895 876.662 895 876.452 895C876.241 895 876.03 895 875.819 895C875.607 895 875.395 895 875.183 895C874.97 895 874.757 895 874.544 895C874.331 895 874.117 895 873.902 895C873.688 895 873.473 895 873.257 895C873.042 895 872.826 895 872.609 895C872.393 895 872.176 895 871.958 895C871.741 895 871.523 895 871.304 895C871.086 895 870.867 895 870.647 895C870.428 895 870.208 895 869.987 895C869.766 895 869.545 895 869.324 895C869.102 895 868.88 895 868.657 895C868.435 895 868.211 895 867.988 895C867.764 895 867.54 895 867.315 895C867.09 895 866.865 895 866.639 895C866.414 895 866.187 895 865.96 895C865.734 895 865.506 895 865.278 895C865.051 895 864.822 895 864.593 895C864.364 895 864.135 895 863.905 895C863.675 895 863.444 895 863.213 895C862.982 895 862.751 895 862.519 895C862.286 895 862.054 895 861.821 895C861.587 895 861.354 895 861.119 895C860.885 895 860.65 895 860.415 895C860.18 895 859.944 895 859.707 895C859.471 895 859.234 895 858.997 895C858.759 895 858.521 895 858.282 895C858.044 895 857.805 895 857.565 895C857.325 895 857.085 895 856.844 895C856.604 895 856.362 895 856.12 895C855.878 895 855.636 895 855.393 895C855.15 895 854.907 895 854.663 895C854.419 895 854.174 895 853.929 895C853.684 895 853.438 895 853.192 895C852.945 895 852.698 895 852.451 895C852.204 895 851.956 895 851.707 895C851.459 895 851.209 895 850.96 895C850.71 895 850.46 895 850.209 895C849.958 895 849.707 895 849.455 895C849.203 895 848.951 895 848.698 895C848.445 895 848.191 895 847.937 895C847.683 895 847.428 895 847.173 895C846.918 895 846.662 895 846.405 895C846.149 895 845.892 895 845.634 895C845.377 895 845.119 895 844.86 895C844.601 895 844.342 895 844.082 895C843.822 895 843.562 895 843.301 895C843.039 895 842.778 895 842.516 895C842.253 895 841.991 895 841.727 895C841.464 895 841.2 895 840.936 895C840.671 895 840.406 895 840.14 895C839.875 895 839.608 895 839.341 895C839.075 895 838.807 895 838.539 895C838.271 895 838.002 895 837.733 895C837.464 895 837.194 895 836.924 895C836.653 895 836.382 895 836.111 895C835.839 895 835.567 895 835.294 895C835.021 895 834.748 895 834.474 895C834.2 895 833.926 895 833.65 895C833.375 895 833.099 895 832.823 895C832.547 895 832.27 895 831.992 895C831.715 895 831.436 895 831.158 895C830.879 895 830.599 895 830.32 895C830.04 895 829.759 895 829.478 895C829.197 895 828.915 895 828.632 895C828.35 895 828.067 895 827.783 895C827.5 895 827.215 895 826.93 895C826.646 895 826.36 895 826.074 895C825.788 895 825.501 895 825.214 895C824.927 895 824.639 895 824.35 895C824.062 895 823.772 895 823.483 895C823.193 895 822.902 895 822.611 895C822.32 895 822.029 895 821.736 895C821.444 895 821.151 895 820.858 895C820.564 895 820.27 895 819.975 895C819.681 895 819.385 895 819.089 895C818.793 895 818.496 895 818.199 895C817.902 895 817.604 895 817.305 895C817.007 895 816.708 895 816.408 895C816.108 895 815.808 895 815.507 895C815.205 895 814.904 895 814.601 895C814.299 895 813.996 895 813.692 895C813.389 895 813.085 895 812.78 895C812.475 895 812.169 895 811.863 895C811.557 895 811.25 895 810.943 895C810.635 895 810.327 895 810.018 895C809.709 895 809.4 895 809.09 895C808.78 895 808.469 895 808.158 895C807.846 895 807.534 895 807.222 895C806.909 895 806.596 895 806.282 895C805.968 895 805.653 895 805.338 895C805.023 895 804.707 895 804.39 895C804.074 895 803.757 895 803.439 895C803.121 895 802.802 895 802.483 895C802.164 895 801.844 895 801.523 895C801.203 895 800.882 895 800.56 895C800.238 895 799.916 895 799.592 895C799.269 895 798.945 895 798.621 895C798.296 895 797.971 895 797.645 895C797.32 895 796.993 895 796.666 895C796.339 895 796.011 895 795.682 895C795.354 895 795.025 895 794.695 895C794.365 895 794.035 895 793.703 895C793.372 895 793.04 895 792.708 895C792.375 895 792.042 895 791.708 895C791.374 895 791.04 895 790.704 895C790.369 895 790.033 895 789.696 895C789.36 895 789.023 895 788.685 895C788.347 895 788.008 895 787.669 895C787.329 895 786.989 895 786.648 895C786.308 895 785.966 895 785.624 895C785.282 895 784.939 895 784.596 895C784.252 895 783.908 895 783.563 895C783.219 895 782.873 895 782.527 895C782.18 895 781.833 895 781.486 895C781.138 895 780.79 895 780.441 895C780.092 895 779.742 895 779.392 895C779.041 895 778.69 895 778.338 895C777.987 895 777.634 895 777.281 895C776.928 895 776.574 895 776.219 895C775.864 895 775.509 895 775.153 895C774.797 895 774.44 895 774.083 895C773.725 895 773.367 895 773.008 895C772.65 895 772.29 895 771.93 895C771.569 895 771.208 895 770.847 895C770.485 895 770.123 895 769.759 895C769.396 895 769.032 895 768.668 895C768.303 895 767.938 895 767.572 895C767.206 895 766.839 895 766.472 895C766.104 895 765.736 895 765.367 895C764.999 895 764.629 895 764.259 895C763.888 895 763.517 895 763.146 895C762.774 895 762.401 895 762.028 895C761.655 895 761.281 895 760.906 895C760.532 895 760.156 895 759.78 895C759.404 895 759.027 895 758.65 895C758.272 895 757.894 895 757.515 895C757.136 895 756.756 895 756.375 895C755.995 895 755.614 895 755.232 895C754.85 895 754.467 895 754.083 895C753.7 895 753.316 895 752.931 895C752.546 895 752.16 895 751.774 895C751.388 895 751 895 750.612 895C750.225 895 749.836 895 749.447 895C749.057 895 748.667 895 748.276 895C747.885 895 747.494 895 747.101 895C746.709 895 746.316 895 745.922 895C745.528 895 745.133 895 744.738 895C744.343 895 743.947 895 743.55 895C743.153 895 742.755 895 742.357 895C741.958 895 741.559 895 741.159 895C740.759 895 740.359 895 739.957 895C739.556 895 739.154 895 738.751 895C738.348 895 737.944 895 737.54 895C737.135 895 736.73 895 736.324 895C735.918 895 735.511 895 735.104 895C734.696 895 734.288 895 733.879 895C733.47 895 733.06 895 732.65 895C732.239 895 731.828 895 731.416 895C731.004 895 730.591 895 730.177 895C729.763 895 729.349 895 728.934 895C728.518 895 728.103 895 727.686 895C727.269 895 726.852 895 726.433 895C726.015 895 725.596 895 725.176 895C724.756 895 724.335 895 723.914 895C723.493 895 723.07 895 722.647 895C722.224 895 721.801 895 721.376 895C720.952 895 720.526 895 720.1 895C719.674 895 719.247 895 718.819 895C718.392 895 717.963 895 717.534 895C717.105 895 716.675 895 716.244 895C715.813 895 715.381 895 714.949 895C714.516 895 714.083 895 713.649 895C713.215 895 712.78 895 712.345 895C711.909 895 711.473 895 711.035 895C710.598 895 710.16 895 709.721 895C709.283 895 708.843 895 708.403 895C707.962 895 707.521 895 707.079 895C706.637 895 706.194 895 705.75 895C705.307 895 704.862 895 704.417 895C703.972 895 703.526 895 703.079 895C702.632 895 702.185 895 701.736 895C701.288 895 700.838 895 700.388 895C699.938 895 699.487 895 699.036 895C698.584 895 698.131 895 697.678 895C697.225 895 696.771 895 696.316 895C695.861 895 695.405 895 694.948 895C694.492 895 694.034 895 693.576 895C693.118 895 692.659 895 692.199 895C691.739 895 691.278 895 690.817 895C690.355 895 689.893 895 689.43 895C688.966 895 688.502 895 688.038 895C687.573 895 687.107 895 686.641 895C686.174 895 685.707 895 685.239 895C684.771 895 684.302 895 683.832 895C683.362 895 682.891 895 682.42 895C681.948 895 681.476 895 681.003 895C680.53 895 680.056 895 679.581 895C679.106 895 678.63 895 678.154 895C677.677 895 677.2 895 676.722 895C676.244 895 675.765 895 675.285 895C674.805 895 674.324 895 673.843 895C673.361 895 672.879 895 672.396 895C671.912 895 671.428 895 670.943 895C670.458 895 669.973 895 669.486 895C668.999 895 668.512 895 668.024 895C667.535 895 667.046 895 666.556 895C666.066 895 665.575 895 665.083 895C664.592 895 664.099 895 663.606 895C663.112 895 662.618 895 662.123 895C661.628 895 661.132 895 660.635 895C660.138 895 659.64 895 659.141 895C658.643 895 658.143 895 657.643 895C657.143 895 656.642 895 656.139 895C655.637 895 655.135 895 654.631 895C654.127 895 653.622 895 653.117 895C652.611 895 652.105 895 651.598 895C651.09 895 650.582 895 650.073 895C649.564 895 649.054 895 648.544 895C648.033 895 647.521 895 647.009 895C646.496 895 645.983 895 645.469 895C644.954 895 644.439 895 643.923 895C643.407 895 642.89 895 642.373 895C641.855 895 641.336 895 640.817 895C640.297 895 639.777 895 639.255 895C638.734 895 638.212 895 637.689 895C637.166 895 636.642 895 636.117 895C635.592 895 635.067 895 634.54 895C634.013 895 633.486 895 632.958 895C632.429 895 631.9 895 631.37 895C630.84 895 630.309 895 629.777 895C629.245 895 628.712 895 628.178 895C627.644 895 627.11 895 626.574 895C626.039 895 625.502 895 624.965 895C624.427 895 623.889 895 623.35 895C622.811 895 622.271 895 621.73 895C621.189 895 620.647 895 620.104 895C619.562 895 619.018 895 618.474 895C617.929 895 617.384 895 616.837 895C616.291 895 615.744 895 615.195 895C614.647 895 614.098 895 613.548 895C612.998 895 612.447 895 611.895 895C611.344 895 610.791 895 610.237 895C609.684 895 609.129 895 608.573 895C608.018 895 607.462 895 606.904 895C606.347 895 605.789 895 605.23 895C604.67 895 604.11 895 603.549 895C602.988 895 602.426 895 601.864 895C601.301 895 600.737 895 600.172 895C599.608 895 599.042 895 598.475 895C597.909 895 597.341 895 596.773 895C596.205 895 595.635 895 595.065 895C594.495 895 593.924 895 593.352 895C592.779 895 592.206 895 591.632 895C591.058 895 590.483 895 589.908 895C589.332 895 588.755 895 588.177 895C587.6 895 587.021 895 586.441 895C585.862 895 585.281 895 584.7 895C584.118 895 583.536 895 582.952 895C582.369 895 581.785 895 581.2 895C580.614 895 580.028 895 579.441 895C578.854 895 578.266 895 577.677 895C577.088 895 576.498 895 575.907 895C575.316 895 574.724 895 574.131 895C573.538 895 572.945 895 572.35 895C571.755 895 571.16 895 570.563 895C569.966 895 569.369 895 568.77 895C568.172 895 567.572 895 566.972 895C566.371 895 565.77 895 565.167 895C564.565 895 563.962 895 563.357 895C562.753 895 562.148 895 561.542 895C560.936 895 560.328 895 559.72 895C559.112 895 558.503 895 557.893 895C557.283 895 556.672 895 556.06 895C555.448 895 554.835 895 554.221 895C553.607 895 552.992 895 552.376 895C551.76 895 551.143 895 550.526 895C549.908 895 549.289 895 548.669 895C548.049 895 547.429 895 546.807 895C546.185 895 545.563 895 544.939 895C544.315 895 543.691 895 543.065 895C542.439 895 541.813 895 541.185 895C540.558 895 539.929 895 539.299 895C538.67 895 538.039 895 537.408 895C536.776 895 536.144 895 535.51 895C534.877 895 534.242 895 533.607 895C532.971 895 532.335 895 531.697 895C531.06 895 530.422 895 529.782 895C529.143 895 528.502 895 527.861 895C527.219 895 526.577 895 525.934 895C525.29 895 524.646 895 524 895C523.355 895 522.709 895 522.061 895C521.414 895 520.765 895 520.116 895C519.467 895 518.816 895 518.165 895C517.513 895 516.861 895 516.208 895C515.554 895 514.9 895 514.245 895C513.589 895 512.933 895 512.275 895C511.618 895 510.959 895 510.3 895C509.641 895 508.98 895 508.319 895C507.657 895 506.995 895 506.331 895C505.668 895 505.003 895 504.338 895C503.672 895 503.006 895 502.338 895C501.671 895 501.002 895 500.333 895C499.663 895 498.992 895 498.321 895C497.649 895 496.977 895 496.303 895C495.629 895 494.955 895 494.279 895C493.603 895 492.927 895 492.249 895C491.571 895 490.892 895 490.213 895C489.533 895 488.852 895 488.17 895C487.488 895 486.805 895 486.121 895C485.438 895 484.753 895 484.067 895C483.381 895 482.694 895 482.006 895C481.318 895 480.629 895 479.939 895C479.249 895 478.557 895 477.865 895C477.173 895 476.48 895 475.786 895C475.091 895 474.396 895 473.7 895C473.004 895 472.306 895 471.608 895C470.909 895 470.21 895 469.51 895C468.809 895 468.108 895 467.405 895C466.702 895 465.999 895 465.294 895C464.589 895 463.884 895 463.177 895C462.47 895 461.762 895 461.054 895C460.345 895 459.635 895 458.924 895C458.213 895 457.501 895 456.788 895C456.075 895 455.361 895 454.646 895C453.93 895 453.214 895 452.497 895C451.78 895 451.061 895 450.342 895C449.623 895 448.902 895 448.181 895C447.459 895 446.737 895 446.013 895C445.289 895 444.565 895 443.839 895C443.113 895 442.386 895 441.658 895C440.931 895 440.202 895 439.472 895C438.742 895 438.01 895 437.278 895C436.546 895 435.813 895 435.079 895C434.344 895 433.609 895 432.872 895C432.136 895 431.399 895 430.66 895C429.921 895 429.182 895 428.441 895C427.7 895 426.958 895 426.216 895C425.473 895 424.729 895 423.984 895C423.239 895 422.493 895 421.745 895C420.998 895 420.25 895 419.5 895C418.751 895 418.001 895 417.249 895C416.498 895 415.745 895 414.991 895C414.238 895 413.483 895 412.727 895C411.971 895 411.214 895 410.456 895C409.698 895 408.939 895 408.179 895C407.418 895 406.657 895 405.895 895C405.132 895 404.369 895 403.604 895C402.84 895 402.074 895 401.307 895C400.54 895 399.772 895 399.003 895C398.234 895 397.464 895 396.693 895C395.922 895 395.15 895 394.376 895C393.603 895 392.828 895 392.053 895C391.277 895 390.5 895 389.723 895C388.945 895 388.166 895 387.386 895C386.606 895 385.825 895 385.043 895C384.26 895 383.477 895 382.693 895C381.908 895 381.123 895 380.336 895C379.549 895 378.761 895 377.973 895C377.184 895 376.394 895 375.603 895C374.811 895 374.019 895 373.226 895C372.432 895 371.638 895 370.842 895C370.047 895 369.25 895 368.452 895C367.654 895 366.856 895 366.055 895C365.255 895 364.454 895 363.652 895C362.85 895 362.046 895 361.242 895C360.437 895 359.631 895 358.824 895C358.018 895 357.21 895 356.401 895C355.592 895 354.781 895 353.97 895C353.159 895 352.346 895 351.533 895C350.719 895 349.904 895 349.088 895C348.273 895 347.456 895 346.637 895C345.819 895 345 895 344.18 895C343.359 895 342.538 895 341.715 895C340.892 895 340.069 895 339.244 895C338.419 895 337.593 895 336.765 895C335.938 895 335.11 895 334.28 895C333.451 895 332.62 895 331.788 895C330.956 895 330.123 895 329.289 895C328.455 895 327.62 895 326.783 895C325.947 895 325.109 895 324.271 895C323.432 895 322.592 895 321.751 895C320.91 895 320.068 895 319.225 895C318.381 895 317.537 895 316.691 895C315.846 895 314.999 895 314.151 895C313.303 895 312.454 895 311.604 895C310.753 895 309.902 895 309.049 895C308.197 895 307.343 895 306.488 895C305.633 895 304.777 895 303.92 895C303.062 895 302.204 895 301.345 895C300.485 895 299.624 895 298.762 895C297.9 895 297.037 895 296.173 895C295.309 895 294.443 895 293.577 895C292.71 895 291.842 895 290.974 895C290.105 895 289.235 895 288.363 895C287.492 895 286.62 895 285.746 895C284.872 895 283.997 895 283.121 895C282.245 895 281.368 895 280.49 895C279.612 895 278.732 895 277.851 895C276.971 895 276.089 895 275.206 895C274.323 895 273.438 895 272.553 895C271.667 895 270.781 895 269.893 895C269.005 895 268.116 895 267.226 895C266.336 895 265.444 895 264.552 895C263.659 895 262.766 895 261.871 895C260.976 895 260.079 895 259.182 895C258.285 895 257.386 895 256.487 895C255.587 895 254.686 895 253.784 895C252.882 895 251.978 895 251.074 895C250.169 895 249.264 895 248.357 895C247.45 895 246.542 895 245.632 895C244.723 895 243.812 895 242.901 895C241.989 895 241.076 895 240.162 895C239.248 895 238.332 895 237.416 895C236.499 895 235.582 895 234.663 895C233.744 895 232.823 895 231.902 895C230.981 895 230.058 895 229.134 895C228.21 895 227.285 895 226.359 895C225.433 895 224.505 895 223.577 895C222.648 895 221.718 895 220.787 895C219.856 895 218.924 895 217.99 895C217.057 895 216.122 895 215.186 895C214.25 895 213.313 895 212.374 895C211.436 895 210.496 895 209.555 895C208.614 895 207.672 895 206.729 895C205.786 895 204.841 895 203.895 895C202.949 895 202.002 895 201.054 895C200.106 895 199.156 895 198.206 895C197.255 895 196.303 895 195.35 895C194.397 895 193.442 895 192.487 895C191.531 895 190.574 895 189.616 895C188.658 895 187.699 895 186.738 895C185.777 895 184.816 895 183.852 895C182.889 895 181.925 895 180.96 895C179.994 895 179.027 895 178.059 895C177.091 895 176.122 895 175.151 895C174.181 895 173.209 895 172.236 895C171.263 895 170.289 895 169.313 895C168.338 895 167.361 895 166.383 895C165.405 895 164.426 895 163.445 895C162.465 895 161.483 895 160.5 895C159.517 895 158.533 895 157.547 895C156.561 895 155.575 895 154.587 895C153.599 895 152.609 895 151.619 895C150.628 895 149.636 895 148.643 895C147.65 895 146.656 895 145.66 895C144.665 895 143.668 895 142.67 895C141.672 895 140.672 895 139.671 895C138.671 895 137.669 895 136.666 895C135.662 895 134.658 895 133.652 895C132.647 895 131.64 895 130.631 895C129.623 895 128.613 895 127.603 895C126.592 895 125.58 895 124.566 895C123.553 895 122.538 895 121.522 895C120.507 895 119.489 895 118.471 895C117.452 895 116.433 895 115.412 895C114.391 895 113.368 895 112.345 895C111.321 895 110.296 895 109.27 895C108.244 895 107.216 895 106.188 895C105.159 895 104.129 895 103.098 895C102.066 895 101.034 895 100 895V905ZM105 900V95H95V900H105Z" fill="black"/>
</g>
<g filter="url(#filter1_i_27_9)">
<circle cx="275" cy="275" r="125" fill="#007CD7"/>
</g>
<g filter="url(#filter2_i_27_9)">
<circle cx="725" cy="275" r="125" fill="#388E3C"/>
</g>
<path d="M648.789 284.879H631.113V271.646H648.789C651.198 271.646 653.151 271.24 654.648 270.426C656.146 269.612 657.236 268.489 657.92 267.057C658.636 265.592 658.994 263.948 658.994 262.125C658.994 260.172 658.636 258.365 657.92 256.705C657.236 255.045 656.146 253.71 654.648 252.701C653.151 251.66 651.198 251.139 648.789 251.139H637.559V309H620.42V237.906H648.789C654.486 237.906 659.385 238.948 663.486 241.031C667.62 243.115 670.794 245.979 673.008 249.625C675.221 253.238 676.328 257.372 676.328 262.027C676.328 266.617 675.221 270.621 673.008 274.039C670.794 277.457 667.62 280.126 663.486 282.047C659.385 283.935 654.486 284.879 648.789 284.879ZM701.963 302.555L716.123 237.906H724.57L729.16 243.424L714.072 309H704.746L701.963 302.555ZM698.203 237.906L710.166 303.043L707.09 309H696.299L681.211 237.906H698.203ZM736.924 302.701L748.789 237.906H765.732L750.645 309H739.902L736.924 302.701ZM730.674 237.906L745.176 302.945L742.246 309H732.92L717.49 243.326L722.275 237.906H730.674ZM800.449 252.848L783.115 309H764.707L790.83 237.906H802.5L800.449 252.848ZM814.805 309L797.422 252.848L795.176 237.906H806.992L833.262 309H814.805ZM814.121 282.486V295.719H777.646V282.486H814.121Z" fill="white"/>
<path d="M209.631 238.946H222.449C222.278 242.657 221.277 245.928 219.446 248.76C217.615 251.592 215.076 253.802 211.829 255.389C208.606 256.951 204.797 257.732 200.403 257.732C196.838 257.732 193.652 257.134 190.845 255.938C188.062 254.742 185.693 253.021 183.74 250.774C181.812 248.528 180.334 245.806 179.309 242.608C178.308 239.41 177.808 235.809 177.808 231.805V228.912C177.808 224.908 178.333 221.307 179.382 218.108C180.457 214.886 181.97 212.151 183.923 209.905C185.901 207.635 188.269 205.901 191.028 204.705C193.787 203.509 196.851 202.911 200.22 202.911C204.858 202.911 208.777 203.741 211.975 205.401C215.173 207.061 217.651 209.344 219.409 212.249C221.167 215.13 222.205 218.414 222.522 222.1H209.705C209.656 220.098 209.314 218.426 208.679 217.083C208.044 215.716 207.043 214.69 205.676 214.007C204.309 213.323 202.49 212.981 200.22 212.981C198.633 212.981 197.253 213.274 196.082 213.86C194.91 214.446 193.933 215.374 193.152 216.644C192.371 217.913 191.785 219.561 191.394 221.587C191.028 223.589 190.845 226.006 190.845 228.838V231.805C190.845 234.637 191.016 237.054 191.357 239.056C191.699 241.058 192.249 242.693 193.005 243.963C193.762 245.232 194.739 246.172 195.935 246.783C197.156 247.369 198.645 247.662 200.403 247.662C202.356 247.662 204.004 247.356 205.347 246.746C206.689 246.111 207.727 245.159 208.459 243.89C209.192 242.596 209.583 240.948 209.631 238.946ZM240.979 200.75V257H228.601V200.75H240.979ZM261.633 217.376V257H249.255V217.376H261.633ZM248.523 207.159C248.523 205.401 249.158 203.96 250.427 202.837C251.697 201.714 253.345 201.153 255.371 201.153C257.397 201.153 259.045 201.714 260.315 202.837C261.584 203.96 262.219 205.401 262.219 207.159C262.219 208.917 261.584 210.357 260.315 211.48C259.045 212.603 257.397 213.165 255.371 213.165C253.345 213.165 251.697 212.603 250.427 211.48C249.158 210.357 248.523 208.917 248.523 207.159ZM288.44 257.732C285.217 257.732 282.336 257.232 279.797 256.231C277.258 255.206 275.11 253.802 273.352 252.02C271.619 250.237 270.288 248.187 269.36 245.867C268.457 243.548 268.005 241.094 268.005 238.506V237.115C268.005 234.209 268.408 231.524 269.214 229.058C270.02 226.568 271.216 224.395 272.803 222.54C274.39 220.684 276.379 219.244 278.772 218.218C281.165 217.168 283.948 216.644 287.122 216.644C289.929 216.644 292.444 217.095 294.666 217.999C296.887 218.902 298.767 220.196 300.305 221.88C301.868 223.565 303.052 225.604 303.857 227.996C304.688 230.389 305.103 233.074 305.103 236.053V241.07H272.729V233.343H293.054V232.391C293.079 231.072 292.847 229.949 292.358 229.021C291.895 228.094 291.211 227.386 290.308 226.897C289.404 226.409 288.306 226.165 287.012 226.165C285.669 226.165 284.558 226.458 283.679 227.044C282.825 227.63 282.153 228.436 281.665 229.461C281.201 230.462 280.872 231.622 280.676 232.94C280.481 234.258 280.383 235.65 280.383 237.115V238.506C280.383 239.971 280.579 241.302 280.969 242.498C281.384 243.694 281.97 244.72 282.727 245.574C283.508 246.404 284.436 247.051 285.51 247.515C286.609 247.979 287.854 248.211 289.246 248.211C290.93 248.211 292.59 247.894 294.226 247.259C295.862 246.624 297.266 245.574 298.438 244.109L304.041 250.774C303.235 251.922 302.087 253.033 300.598 254.107C299.133 255.181 297.375 256.06 295.325 256.744C293.274 257.403 290.979 257.732 288.44 257.732ZM322.241 225.835V257H309.9V217.376H321.472L322.241 225.835ZM320.776 235.833L317.883 235.906C317.883 232.879 318.25 230.181 318.982 227.813C319.714 225.42 320.752 223.394 322.095 221.734C323.438 220.074 325.037 218.816 326.892 217.962C328.772 217.083 330.859 216.644 333.154 216.644C334.985 216.644 336.658 216.912 338.171 217.449C339.709 217.986 341.028 218.853 342.126 220.049C343.25 221.246 344.104 222.833 344.69 224.81C345.3 226.763 345.605 229.18 345.605 232.061V257H333.191V232.024C333.191 230.438 332.971 229.229 332.532 228.399C332.092 227.544 331.458 226.958 330.627 226.641C329.797 226.324 328.784 226.165 327.588 226.165C326.318 226.165 325.244 226.409 324.365 226.897C323.486 227.386 322.778 228.069 322.241 228.948C321.729 229.803 321.35 230.816 321.106 231.988C320.886 233.16 320.776 234.441 320.776 235.833ZM373.328 217.376V225.945H349.451V217.376H373.328ZM354.468 207.525H366.809V244.073C366.809 245.123 366.931 245.94 367.175 246.526C367.419 247.088 367.834 247.491 368.42 247.735C369.031 247.955 369.836 248.064 370.837 248.064C371.545 248.064 372.131 248.052 372.595 248.028C373.059 247.979 373.499 247.918 373.914 247.845V256.67C372.864 257.012 371.765 257.269 370.618 257.439C369.47 257.635 368.25 257.732 366.956 257.732C364.319 257.732 362.061 257.317 360.181 256.487C358.325 255.657 356.909 254.351 355.933 252.569C354.956 250.787 354.468 248.467 354.468 245.611V207.525ZM216.772 335.112V345H189.819V335.112H216.772ZM194.397 291.68V345H181.543V291.68H194.397ZM220.068 325.591V324.822C220.068 321.917 220.483 319.243 221.313 316.802C222.144 314.336 223.364 312.2 224.976 310.393C226.587 308.586 228.577 307.183 230.945 306.182C233.313 305.156 236.047 304.644 239.148 304.644C242.273 304.644 245.02 305.156 247.388 306.182C249.78 307.183 251.782 308.586 253.394 310.393C255.005 312.2 256.226 314.336 257.056 316.802C257.886 319.243 258.301 321.917 258.301 324.822V325.591C258.301 328.472 257.886 331.145 257.056 333.611C256.226 336.052 255.005 338.188 253.394 340.02C251.782 341.826 249.792 343.23 247.424 344.231C245.056 345.232 242.322 345.732 239.221 345.732C236.121 345.732 233.374 345.232 230.981 344.231C228.589 343.23 226.587 341.826 224.976 340.02C223.364 338.188 222.144 336.052 221.313 333.611C220.483 331.145 220.068 328.472 220.068 325.591ZM232.41 324.822V325.591C232.41 327.08 232.52 328.472 232.739 329.766C232.959 331.06 233.325 332.195 233.838 333.171C234.351 334.124 235.046 334.868 235.925 335.405C236.804 335.942 237.903 336.211 239.221 336.211C240.515 336.211 241.589 335.942 242.444 335.405C243.323 334.868 244.019 334.124 244.531 333.171C245.044 332.195 245.41 331.06 245.63 329.766C245.85 328.472 245.959 327.08 245.959 325.591V324.822C245.959 323.381 245.85 322.026 245.63 320.757C245.41 319.463 245.044 318.328 244.531 317.351C244.019 316.35 243.323 315.569 242.444 315.007C241.565 314.446 240.466 314.165 239.148 314.165C237.854 314.165 236.768 314.446 235.889 315.007C235.034 315.569 234.351 316.35 233.838 317.351C233.325 318.328 232.959 319.463 232.739 320.757C232.52 322.026 232.41 323.381 232.41 324.822ZM286.938 335.369V305.376H299.316V345H287.744L286.938 335.369ZM288.11 327.312L291.333 327.239C291.333 329.9 291.016 332.366 290.381 334.636C289.746 336.882 288.806 338.835 287.561 340.496C286.34 342.156 284.827 343.45 283.02 344.377C281.238 345.281 279.175 345.732 276.831 345.732C274.878 345.732 273.083 345.464 271.448 344.927C269.836 344.365 268.445 343.499 267.273 342.327C266.101 341.13 265.186 339.604 264.526 337.749C263.892 335.869 263.574 333.623 263.574 331.011V305.376H275.916V331.084C275.916 331.963 276.025 332.72 276.245 333.354C276.465 333.989 276.782 334.526 277.197 334.966C277.612 335.381 278.125 335.698 278.735 335.918C279.37 336.113 280.09 336.211 280.896 336.211C282.751 336.211 284.204 335.82 285.254 335.039C286.304 334.258 287.036 333.196 287.451 331.853C287.891 330.51 288.11 328.997 288.11 327.312ZM318.579 315.19V345H306.238V305.376H317.773L318.579 315.19ZM330.298 305.083L330.078 316.545C329.59 316.497 328.931 316.436 328.101 316.362C327.271 316.289 326.575 316.252 326.013 316.252C324.573 316.252 323.328 316.423 322.278 316.765C321.252 317.083 320.398 317.571 319.714 318.23C319.055 318.865 318.567 319.67 318.25 320.647C317.957 321.624 317.822 322.759 317.847 324.053L315.613 322.588C315.613 319.927 315.869 317.51 316.382 315.337C316.919 313.14 317.676 311.248 318.652 309.661C319.629 308.049 320.813 306.816 322.205 305.962C323.596 305.083 325.159 304.644 326.892 304.644C327.502 304.644 328.101 304.68 328.687 304.753C329.297 304.827 329.834 304.937 330.298 305.083ZM356.592 335.918V288.75H369.006V345H357.874L356.592 335.918ZM332.275 325.664V324.895C332.275 321.892 332.605 319.158 333.264 316.692C333.923 314.202 334.9 312.065 336.194 310.283C337.488 308.477 339.099 307.085 341.028 306.108C342.957 305.132 345.178 304.644 347.693 304.644C349.939 304.644 351.904 305.168 353.589 306.218C355.273 307.244 356.714 308.684 357.91 310.54C359.106 312.395 360.083 314.568 360.84 317.058C361.597 319.524 362.17 322.185 362.561 325.042V325.957C362.17 328.643 361.597 331.182 360.84 333.574C360.083 335.942 359.106 338.042 357.91 339.873C356.714 341.704 355.261 343.145 353.552 344.194C351.868 345.22 349.89 345.732 347.62 345.732C345.105 345.732 342.883 345.232 340.955 344.231C339.05 343.23 337.451 341.826 336.157 340.02C334.888 338.213 333.923 336.089 333.264 333.647C332.605 331.206 332.275 328.545 332.275 325.664ZM344.617 324.895V325.664C344.617 327.153 344.714 328.533 344.91 329.802C345.105 331.072 345.435 332.195 345.898 333.171C346.387 334.124 347.021 334.868 347.803 335.405C348.608 335.942 349.597 336.211 350.769 336.211C352.356 336.211 353.662 335.833 354.688 335.076C355.737 334.319 356.506 333.245 356.995 331.853C357.507 330.461 357.727 328.826 357.654 326.946V324.053C357.703 322.441 357.593 321.025 357.324 319.805C357.056 318.56 356.628 317.522 356.042 316.692C355.481 315.862 354.761 315.239 353.882 314.824C353.027 314.385 352.014 314.165 350.842 314.165C349.695 314.165 348.718 314.434 347.913 314.971C347.131 315.508 346.497 316.265 346.008 317.241C345.52 318.193 345.166 319.329 344.946 320.647C344.727 321.941 344.617 323.357 344.617 324.895Z" fill="white"/>
<g filter="url(#filter3_i_27_9)">
<circle cx="725" cy="725" r="125" fill="#FFA800"/>
</g>
<path d="M684.717 664.886L671.716 707H657.91L677.502 653.68H686.255L684.717 664.886ZM695.483 707L682.446 664.886L680.762 653.68H689.624L709.326 707H695.483ZM694.971 687.115V697.039H667.615V687.115H694.971ZM723.352 674.993V722.234H711.011V667.376H722.51L723.352 674.993ZM747.668 686.712V687.481C747.668 690.362 747.339 693.035 746.68 695.501C746.021 697.967 745.044 700.115 743.75 701.946C742.456 703.777 740.845 705.206 738.916 706.231C737.012 707.232 734.802 707.732 732.288 707.732C729.919 707.732 727.881 707.208 726.172 706.158C724.463 705.108 723.035 703.655 721.887 701.8C720.74 699.944 719.812 697.82 719.104 695.428C718.396 693.035 717.834 690.508 717.419 687.847V686.858C717.834 684.002 718.396 681.353 719.104 678.912C719.812 676.446 720.74 674.297 721.887 672.466C723.035 670.635 724.451 669.207 726.135 668.182C727.844 667.156 729.883 666.644 732.251 666.644C734.766 666.644 736.975 667.12 738.879 668.072C740.808 669.024 742.419 670.391 743.713 672.173C745.032 673.931 746.021 676.043 746.68 678.509C747.339 680.975 747.668 683.709 747.668 686.712ZM735.327 687.481V686.712C735.327 685.174 735.217 683.77 734.998 682.5C734.778 681.207 734.424 680.083 733.936 679.131C733.472 678.179 732.849 677.447 732.068 676.934C731.287 676.421 730.322 676.165 729.175 676.165C727.856 676.165 726.746 676.373 725.842 676.788C724.963 677.178 724.255 677.789 723.718 678.619C723.206 679.424 722.839 680.438 722.62 681.658C722.424 682.854 722.339 684.258 722.363 685.87V688.873C722.314 690.728 722.498 692.364 722.913 693.78C723.328 695.171 724.048 696.258 725.073 697.039C726.099 697.82 727.49 698.211 729.248 698.211C730.42 698.211 731.396 697.942 732.178 697.405C732.959 696.844 733.582 696.075 734.045 695.098C734.509 694.097 734.839 692.95 735.034 691.656C735.229 690.362 735.327 688.97 735.327 687.481ZM765.613 674.993V722.234H753.271V667.376H764.771L765.613 674.993ZM789.929 686.712V687.481C789.929 690.362 789.6 693.035 788.94 695.501C788.281 697.967 787.305 700.115 786.011 701.946C784.717 703.777 783.105 705.206 781.177 706.231C779.272 707.232 777.063 707.732 774.548 707.732C772.18 707.732 770.142 707.208 768.433 706.158C766.724 705.108 765.295 703.655 764.148 701.8C763 699.944 762.073 697.82 761.365 695.428C760.657 693.035 760.095 690.508 759.68 687.847V686.858C760.095 684.002 760.657 681.353 761.365 678.912C762.073 676.446 763 674.297 764.148 672.466C765.295 670.635 766.711 669.207 768.396 668.182C770.105 667.156 772.144 666.644 774.512 666.644C777.026 666.644 779.236 667.12 781.14 668.072C783.069 669.024 784.68 670.391 785.974 672.173C787.292 673.931 788.281 676.043 788.94 678.509C789.6 680.975 789.929 683.709 789.929 686.712ZM777.588 687.481V686.712C777.588 685.174 777.478 683.77 777.258 682.5C777.039 681.207 776.685 680.083 776.196 679.131C775.732 678.179 775.11 677.447 774.329 676.934C773.547 676.421 772.583 676.165 771.436 676.165C770.117 676.165 769.006 676.373 768.103 676.788C767.224 677.178 766.516 677.789 765.979 678.619C765.466 679.424 765.1 680.438 764.88 681.658C764.685 682.854 764.6 684.258 764.624 685.87V688.873C764.575 690.728 764.758 692.364 765.173 693.78C765.588 695.171 766.309 696.258 767.334 697.039C768.359 697.82 769.751 698.211 771.509 698.211C772.681 698.211 773.657 697.942 774.438 697.405C775.22 696.844 775.842 696.075 776.306 695.098C776.77 694.097 777.1 692.95 777.295 691.656C777.49 690.362 777.588 688.97 777.588 687.481ZM667.798 790.166L678.418 741.68H684.753L688.196 745.818L676.88 795H669.885L667.798 790.166ZM664.978 741.68L673.95 790.532L671.643 795H663.55L652.234 741.68H664.978ZM694.019 790.276L702.917 741.68H715.625L704.309 795H696.252L694.019 790.276ZM689.331 741.68L700.208 790.459L698.01 795H691.016L679.443 745.745L683.032 741.68H689.331ZM738.11 795.732C734.888 795.732 732.007 795.232 729.468 794.231C726.929 793.206 724.78 791.802 723.022 790.02C721.289 788.237 719.958 786.187 719.031 783.867C718.127 781.548 717.676 779.094 717.676 776.506V775.115C717.676 772.209 718.079 769.524 718.884 767.058C719.69 764.568 720.886 762.395 722.473 760.54C724.06 758.684 726.05 757.244 728.442 756.218C730.835 755.168 733.618 754.644 736.792 754.644C739.6 754.644 742.114 755.095 744.336 755.999C746.558 756.902 748.438 758.196 749.976 759.88C751.538 761.565 752.722 763.604 753.528 765.996C754.358 768.389 754.773 771.074 754.773 774.053V779.07H722.4V771.343H742.725V770.391C742.749 769.072 742.517 767.949 742.029 767.021C741.565 766.094 740.881 765.386 739.978 764.897C739.075 764.409 737.976 764.165 736.682 764.165C735.339 764.165 734.229 764.458 733.35 765.044C732.495 765.63 731.824 766.436 731.335 767.461C730.872 768.462 730.542 769.622 730.347 770.94C730.151 772.258 730.054 773.65 730.054 775.115V776.506C730.054 777.971 730.249 779.302 730.64 780.498C731.055 781.694 731.641 782.72 732.397 783.574C733.179 784.404 734.106 785.051 735.181 785.515C736.279 785.979 737.524 786.211 738.916 786.211C740.601 786.211 742.261 785.894 743.896 785.259C745.532 784.624 746.936 783.574 748.108 782.109L753.711 788.774C752.905 789.922 751.758 791.033 750.269 792.107C748.804 793.181 747.046 794.06 744.995 794.744C742.944 795.403 740.649 795.732 738.11 795.732ZM759.9 738.75H772.241V785.259L770.959 795H759.9V738.75ZM796.558 774.749V775.518C796.558 778.521 796.252 781.255 795.642 783.721C795.032 786.187 794.092 788.323 792.822 790.129C791.553 791.912 789.954 793.291 788.025 794.268C786.096 795.244 783.813 795.732 781.177 795.732C778.784 795.732 776.733 795.22 775.024 794.194C773.315 793.145 771.887 791.704 770.74 789.873C769.592 788.018 768.665 785.881 767.957 783.464C767.249 781.023 766.687 778.411 766.272 775.627V774.712C766.687 771.953 767.249 769.365 767.957 766.948C768.665 764.507 769.592 762.371 770.74 760.54C771.887 758.684 773.303 757.244 774.988 756.218C776.697 755.168 778.735 754.644 781.104 754.644C783.765 754.644 786.06 755.144 787.988 756.145C789.941 757.146 791.553 758.55 792.822 760.356C794.092 762.163 795.032 764.287 795.642 766.729C796.252 769.17 796.558 771.843 796.558 774.749ZM784.216 775.518V774.749C784.216 773.308 784.131 771.953 783.96 770.684C783.789 769.414 783.484 768.291 783.044 767.314C782.605 766.338 781.982 765.569 781.177 765.007C780.371 764.446 779.321 764.165 778.027 764.165C776.709 764.165 775.598 764.385 774.695 764.824C773.816 765.264 773.108 765.898 772.571 766.729C772.058 767.534 771.692 768.535 771.472 769.731C771.252 770.903 771.155 772.234 771.179 773.723V776.616C771.13 778.643 771.313 780.376 771.729 781.816C772.144 783.257 772.864 784.355 773.889 785.112C774.915 785.869 776.318 786.248 778.101 786.248C779.419 786.248 780.481 785.991 781.287 785.479C782.117 784.966 782.739 784.233 783.154 783.281C783.569 782.329 783.85 781.194 783.997 779.875C784.143 778.557 784.216 777.104 784.216 775.518Z" fill="white"/>
<path d="M440.296 958.939H431.458V952.323H440.296C441.5 952.323 442.477 952.12 443.226 951.713C443.974 951.306 444.52 950.744 444.861 950.028C445.219 949.296 445.398 948.474 445.398 947.562C445.398 946.586 445.219 945.683 444.861 944.853C444.52 944.022 443.974 943.355 443.226 942.851C442.477 942.33 441.5 942.069 440.296 942.069H434.681V971H426.111V935.453H440.296C443.144 935.453 445.594 935.974 447.645 937.016C449.712 938.057 451.299 939.49 452.405 941.312C453.512 943.119 454.065 945.186 454.065 947.514C454.065 949.809 453.512 951.811 452.405 953.52C451.299 955.229 449.712 956.563 447.645 957.523C445.594 958.467 443.144 958.939 440.296 958.939ZM456.922 958.061V957.548C456.922 955.611 457.199 953.829 457.752 952.201C458.305 950.557 459.119 949.133 460.193 947.929C461.268 946.724 462.594 945.788 464.173 945.121C465.752 944.438 467.575 944.096 469.642 944.096C471.725 944.096 473.556 944.438 475.135 945.121C476.73 945.788 478.064 946.724 479.139 947.929C480.213 949.133 481.027 950.557 481.58 952.201C482.133 953.829 482.41 955.611 482.41 957.548V958.061C482.41 959.981 482.133 961.763 481.58 963.407C481.027 965.035 480.213 966.459 479.139 967.68C478.064 968.884 476.738 969.82 475.159 970.487C473.58 971.155 471.757 971.488 469.69 971.488C467.623 971.488 465.792 971.155 464.197 970.487C462.602 969.82 461.268 968.884 460.193 967.68C459.119 966.459 458.305 965.035 457.752 963.407C457.199 961.763 456.922 959.981 456.922 958.061ZM465.149 957.548V958.061C465.149 959.053 465.223 959.981 465.369 960.844C465.516 961.706 465.76 962.463 466.102 963.114C466.443 963.749 466.907 964.245 467.493 964.604C468.079 964.962 468.812 965.141 469.69 965.141C470.553 965.141 471.269 964.962 471.839 964.604C472.425 964.245 472.889 963.749 473.23 963.114C473.572 962.463 473.816 961.706 473.963 960.844C474.109 959.981 474.183 959.053 474.183 958.061V957.548C474.183 956.588 474.109 955.684 473.963 954.838C473.816 953.975 473.572 953.218 473.23 952.567C472.889 951.9 472.425 951.379 471.839 951.005C471.253 950.631 470.521 950.443 469.642 950.443C468.779 950.443 468.055 950.631 467.469 951.005C466.899 951.379 466.443 951.9 466.102 952.567C465.76 953.218 465.516 953.975 465.369 954.838C465.223 955.684 465.149 956.588 465.149 957.548ZM494.373 951.127V971H486.146V944.584H493.836L494.373 951.127ZM502.186 944.389L502.039 952.03C501.714 951.998 501.274 951.957 500.721 951.908C500.167 951.859 499.703 951.835 499.329 951.835C498.369 951.835 497.539 951.949 496.839 952.177C496.155 952.388 495.586 952.714 495.13 953.153C494.69 953.576 494.365 954.114 494.153 954.765C493.958 955.416 493.868 956.173 493.885 957.035L492.396 956.059C492.396 954.285 492.566 952.673 492.908 951.225C493.266 949.76 493.771 948.498 494.422 947.44C495.073 946.366 495.862 945.544 496.79 944.975C497.718 944.389 498.759 944.096 499.915 944.096C500.322 944.096 500.721 944.12 501.111 944.169C501.518 944.218 501.876 944.291 502.186 944.389ZM520.154 944.584V950.297H504.236V944.584H520.154ZM507.581 938.017H515.809V962.382C515.809 963.082 515.89 963.627 516.053 964.018C516.215 964.392 516.492 964.66 516.883 964.823C517.29 964.97 517.827 965.043 518.494 965.043C518.966 965.043 519.357 965.035 519.666 965.019C519.975 964.986 520.268 964.945 520.545 964.896V970.78C519.845 971.008 519.113 971.179 518.348 971.293C517.583 971.423 516.769 971.488 515.906 971.488C514.148 971.488 512.643 971.212 511.39 970.658C510.153 970.105 509.209 969.234 508.558 968.046C507.907 966.858 507.581 965.312 507.581 963.407V938.017ZM536.219 971.488C534.07 971.488 532.15 971.155 530.457 970.487C528.764 969.804 527.332 968.868 526.16 967.68C525.005 966.492 524.118 965.124 523.499 963.578C522.897 962.032 522.596 960.396 522.596 958.671V957.743C522.596 955.806 522.864 954.016 523.401 952.372C523.938 950.712 524.736 949.263 525.794 948.026C526.852 946.789 528.178 945.829 529.773 945.146C531.368 944.446 533.224 944.096 535.34 944.096C537.212 944.096 538.888 944.397 540.369 944.999C541.85 945.601 543.104 946.464 544.129 947.587C545.171 948.71 545.96 950.069 546.497 951.664C547.05 953.259 547.327 955.049 547.327 957.035V960.38H525.745V955.229H539.295V954.594C539.311 953.715 539.157 952.966 538.831 952.348C538.522 951.729 538.066 951.257 537.464 950.932C536.862 950.606 536.129 950.443 535.267 950.443C534.371 950.443 533.631 950.639 533.045 951.029C532.475 951.42 532.028 951.957 531.702 952.641C531.393 953.308 531.173 954.081 531.043 954.96C530.913 955.839 530.848 956.767 530.848 957.743V958.671C530.848 959.647 530.978 960.535 531.238 961.332C531.515 962.13 531.906 962.813 532.41 963.383C532.931 963.936 533.549 964.368 534.266 964.677C534.998 964.986 535.828 965.141 536.756 965.141C537.879 965.141 538.986 964.929 540.076 964.506C541.167 964.083 542.103 963.383 542.884 962.406L546.619 966.85C546.082 967.615 545.317 968.355 544.324 969.071C543.348 969.787 542.176 970.373 540.809 970.829C539.441 971.269 537.911 971.488 536.219 971.488ZM530.384 941.142L535.218 933.476H543.909L537.098 941.142H530.384ZM563.465 971.488C561.316 971.488 559.396 971.155 557.703 970.487C556.01 969.804 554.578 968.868 553.406 967.68C552.251 966.492 551.364 965.124 550.745 963.578C550.143 962.032 549.842 960.396 549.842 958.671V957.743C549.842 955.806 550.11 954.016 550.647 952.372C551.185 950.712 551.982 949.263 553.04 948.026C554.098 946.789 555.424 945.829 557.02 945.146C558.615 944.446 560.47 944.096 562.586 944.096C564.458 944.096 566.134 944.397 567.615 944.999C569.096 945.601 570.35 946.464 571.375 947.587C572.417 948.71 573.206 950.069 573.743 951.664C574.297 953.259 574.573 955.049 574.573 957.035V960.38H552.991V955.229H566.541V954.594C566.557 953.715 566.403 952.966 566.077 952.348C565.768 951.729 565.312 951.257 564.71 950.932C564.108 950.606 563.375 950.443 562.513 950.443C561.618 950.443 560.877 950.639 560.291 951.029C559.721 951.42 559.274 951.957 558.948 952.641C558.639 953.308 558.419 954.081 558.289 954.96C558.159 955.839 558.094 956.767 558.094 957.743V958.671C558.094 959.647 558.224 960.535 558.484 961.332C558.761 962.13 559.152 962.813 559.656 963.383C560.177 963.936 560.796 964.368 561.512 964.677C562.244 964.986 563.074 965.141 564.002 965.141C565.125 965.141 566.232 964.929 567.322 964.506C568.413 964.083 569.349 963.383 570.13 962.406L573.865 966.85C573.328 967.615 572.563 968.355 571.57 969.071C570.594 969.787 569.422 970.373 568.055 970.829C566.688 971.269 565.158 971.488 563.465 971.488Z" fill="black"/>
<path d="M50.9639 589.063L50.9639 580.518C53.4378 580.632 55.6188 581.299 57.5068 582.52C59.3949 583.74 60.8678 585.433 61.9258 587.598C62.9675 589.746 63.4883 592.285 63.4883 595.215C63.4883 597.591 63.0895 599.715 62.292 601.587C61.4945 603.442 60.347 605.021 58.8496 606.323C57.3522 607.609 55.5374 608.594 53.4053 609.277C51.2731 609.945 48.8724 610.278 46.2031 610.278H44.2744C41.6051 610.278 39.2044 609.928 37.0723 609.229C34.9238 608.512 33.1009 607.503 31.6035 606.201C30.0898 604.883 28.9342 603.304 28.1367 601.465C27.3392 599.626 26.9404 597.583 26.9404 595.337C26.9404 592.245 27.4938 589.632 28.6006 587.5C29.7074 585.368 31.2292 583.716 33.166 582.544C35.0866 581.372 37.2757 580.68 39.7334 580.469V589.014C38.3988 589.046 37.2839 589.274 36.3887 589.697C35.4772 590.12 34.7936 590.788 34.3379 591.699C33.8822 592.611 33.6543 593.823 33.6543 595.337C33.6543 596.395 33.8496 597.315 34.2402 598.096C34.6309 598.877 35.2494 599.528 36.0957 600.049C36.9421 600.57 38.0407 600.96 39.3916 601.221C40.7262 601.465 42.3376 601.587 44.2256 601.587H46.2031C48.0911 601.587 49.7025 601.473 51.0371 601.245C52.3717 601.017 53.4622 600.651 54.3086 600.147C55.155 599.642 55.7816 598.991 56.1885 598.193C56.5791 597.38 56.7744 596.387 56.7744 595.215C56.7744 593.913 56.571 592.814 56.1641 591.919C55.7409 591.024 55.1061 590.332 54.2598 589.844C53.3971 589.356 52.2985 589.095 50.9639 589.063ZM56.3594 563.135H45.4707C44.722 563.135 44.0791 563.241 43.542 563.452C43.0049 563.664 42.5898 563.997 42.2969 564.453C41.9876 564.909 41.833 565.519 41.833 566.284C41.833 566.903 41.9388 567.432 42.1504 567.871C42.362 568.311 42.6794 568.644 43.1025 568.872C43.5257 569.1 44.0628 569.214 44.7139 569.214L44.7139 577.441C43.4932 577.441 42.362 577.173 41.3203 576.636C40.2624 576.082 39.3428 575.301 38.5615 574.292C37.7803 573.267 37.1781 572.046 36.7549 570.63C36.3154 569.198 36.0957 567.603 36.0957 565.845C36.0957 563.745 36.4456 561.873 37.1455 560.23C37.8454 558.569 38.8952 557.259 40.2949 556.299C41.6784 555.339 43.4199 554.858 45.5195 554.858H56.335C58.0602 554.858 59.3704 554.761 60.2656 554.565C61.1445 554.37 61.9176 554.093 62.585 553.735H63V561.987C62.1862 562.378 61.1934 562.671 60.0215 562.866C58.8333 563.045 57.6126 563.135 56.3594 563.135ZM46.8623 562.134L51.2568 562.085V565.723C51.2568 566.488 51.3626 567.139 51.5742 567.676C51.7858 568.197 52.0788 568.62 52.4531 568.945C52.8112 569.255 53.2181 569.482 53.6738 569.629C54.1296 569.759 54.6097 569.824 55.1143 569.824C55.6025 569.824 56.042 569.71 56.4326 569.482C56.807 569.238 57.0999 568.913 57.3115 568.506C57.5231 568.099 57.6289 567.643 57.6289 567.139C57.6289 566.227 57.458 565.454 57.1162 564.819C56.7581 564.168 56.3268 563.672 55.8223 563.33C55.3177 562.988 54.8457 562.817 54.4063 562.817L57.7754 561.011C58.4264 561.336 59.0856 561.711 59.7529 562.134C60.4203 562.541 61.0387 563.053 61.6084 563.672C62.1618 564.274 62.6175 565.015 62.9756 565.894C63.3174 566.773 63.4883 567.839 63.4883 569.092C63.4883 570.719 63.1546 572.217 62.4873 573.584C61.82 574.935 60.8923 576.017 59.7041 576.831C58.4997 577.645 57.1162 578.052 55.5537 578.052C54.1865 578.052 52.9658 577.808 51.8916 577.319C50.8174 576.815 49.9059 576.058 49.1572 575.049C48.4085 574.04 47.8389 572.754 47.4482 571.191C47.0576 569.629 46.8623 567.79 46.8623 565.674V562.134ZM41.6621 541.992H73.1563V550.22H36.584L36.584 542.554L41.6621 541.992ZM49.4746 525.781H49.9873C51.9079 525.781 53.6901 526.001 55.334 526.44C56.9779 526.88 58.4102 527.531 59.6309 528.394C60.8516 529.256 61.8037 530.33 62.4873 531.616C63.1546 532.886 63.4883 534.359 63.4883 536.035C63.4883 537.614 63.1384 538.973 62.4385 540.112C61.7386 541.252 60.7702 542.204 59.5332 542.969C58.2962 543.734 56.8802 544.352 55.2852 544.824C53.6901 545.296 52.0055 545.671 50.2314 545.947H49.5723C47.668 545.671 45.902 545.296 44.2744 544.824C42.6305 544.352 41.1982 543.734 39.9775 542.969C38.7568 542.204 37.8047 541.26 37.1211 540.137C36.4375 538.997 36.0957 537.638 36.0957 536.06C36.0957 534.383 36.4131 532.91 37.0479 531.641C37.6826 530.355 38.5941 529.281 39.7822 528.418C40.9541 527.539 42.362 526.88 44.0059 526.44C45.6497 526.001 47.4727 525.781 49.4746 525.781ZM49.9873 534.009H49.4746C48.4492 534.009 47.5134 534.082 46.667 534.229C45.8044 534.375 45.0557 534.611 44.4209 534.937C43.7861 535.246 43.2979 535.661 42.9561 536.182C42.6143 536.703 42.4434 537.345 42.4434 538.11C42.4434 538.989 42.5817 539.73 42.8584 540.332C43.1188 540.918 43.5257 541.39 44.0791 541.748C44.6162 542.09 45.2917 542.334 46.1055 542.481C46.903 542.611 47.8389 542.668 48.9131 542.651H50.915C52.152 542.684 53.2425 542.562 54.1865 542.285C55.1143 542.009 55.8385 541.528 56.3594 540.845C56.8802 540.161 57.1406 539.233 57.1406 538.062C57.1406 537.28 56.9616 536.629 56.6035 536.108C56.2292 535.588 55.7165 535.173 55.0654 534.863C54.3981 534.554 53.6331 534.334 52.7705 534.204C51.9079 534.074 50.9801 534.009 49.9873 534.009ZM56.3594 508.398H45.4707C44.722 508.398 44.0791 508.504 43.542 508.716C43.0049 508.927 42.5898 509.261 42.2969 509.717C41.9876 510.173 41.833 510.783 41.833 511.548C41.833 512.166 41.9388 512.695 42.1504 513.135C42.362 513.574 42.6794 513.908 43.1025 514.136C43.5257 514.364 44.0628 514.478 44.7139 514.478V522.705C43.4932 522.705 42.362 522.437 41.3203 521.899C40.2624 521.346 39.3428 520.565 38.5615 519.556C37.7803 518.53 37.1781 517.31 36.7549 515.894C36.3154 514.461 36.0957 512.866 36.0957 511.108C36.0957 509.009 36.4456 507.137 37.1455 505.493C37.8454 503.833 38.8952 502.523 40.2949 501.563C41.6784 500.602 43.4199 500.122 45.5195 500.122H56.335C58.0602 500.122 59.3704 500.024 60.2656 499.829C61.1445 499.634 61.9176 499.357 62.585 498.999H63V507.251C62.1862 507.642 61.1934 507.935 60.0215 508.13C58.8333 508.309 57.6126 508.398 56.3594 508.398ZM46.8623 507.398L51.2568 507.349V510.986C51.2568 511.751 51.3626 512.402 51.5742 512.939C51.7858 513.46 52.0788 513.884 52.4531 514.209C52.8112 514.518 53.2181 514.746 53.6738 514.893C54.1296 515.023 54.6097 515.088 55.1143 515.088C55.6025 515.088 56.042 514.974 56.4326 514.746C56.807 514.502 57.0999 514.176 57.3115 513.77C57.5231 513.363 57.6289 512.907 57.6289 512.402C57.6289 511.491 57.458 510.718 57.1162 510.083C56.7581 509.432 56.3268 508.936 55.8223 508.594C55.3177 508.252 54.8457 508.081 54.4063 508.081L57.7754 506.274C58.4264 506.6 59.0856 506.974 59.7529 507.398C60.4203 507.804 61.0387 508.317 61.6084 508.936C62.1618 509.538 62.6175 510.278 62.9756 511.157C63.3174 512.036 63.4883 513.102 63.4883 514.356C63.4883 515.983 63.1546 517.481 62.4873 518.848C61.82 520.199 60.8923 521.281 59.7041 522.095C58.4997 522.909 57.1162 523.315 55.5537 523.315C54.1865 523.315 52.9658 523.071 51.8916 522.583C50.8174 522.078 49.9059 521.322 49.1572 520.313C48.4085 519.303 47.8389 518.018 47.4482 516.455C47.0576 514.893 46.8623 513.053 46.8623 510.938V507.398ZM57.1406 484.399C57.1406 483.634 57.0023 482.983 56.7256 482.446C56.4326 481.893 56.0257 481.478 55.5049 481.201C54.9678 480.908 54.3249 480.77 53.5762 480.786V473.047C55.5619 473.031 57.3034 473.519 58.8008 474.512C60.2819 475.488 61.4375 476.823 62.2676 478.516C63.0814 480.192 63.4883 482.088 63.4883 484.204C63.4883 486.271 63.1546 488.078 62.4873 489.624C61.8037 491.17 60.8597 492.464 59.6553 493.506C58.4346 494.531 57.0104 495.304 55.3828 495.825C53.7552 496.33 51.9893 496.582 50.085 496.582H49.5234C47.6191 496.582 45.8532 496.33 44.2256 495.825C42.5817 495.304 41.1576 494.531 39.9531 493.506C38.7324 492.464 37.7884 491.178 37.1211 489.648C36.4375 488.102 36.0957 486.304 36.0957 484.253C36.0957 482.056 36.5107 480.119 37.3408 478.442C38.1709 476.75 39.3753 475.423 40.9541 474.463C42.5329 473.503 44.4453 473.031 46.6914 473.047V480.786C45.8939 480.77 45.1777 480.892 44.543 481.152C43.9082 481.413 43.4036 481.82 43.0293 482.373C42.6387 482.91 42.4434 483.602 42.4434 484.448C42.4434 485.295 42.6305 485.978 43.0049 486.499C43.3792 487.02 43.9001 487.419 44.5674 487.695C45.2184 487.956 45.9671 488.135 46.8135 488.232C47.6598 488.314 48.5632 488.355 49.5234 488.355H50.085C51.0615 488.355 51.9811 488.314 52.8438 488.232C53.6901 488.135 54.4388 487.948 55.0898 487.671C55.7246 487.394 56.2292 486.995 56.6035 486.475C56.9616 485.954 57.1406 485.262 57.1406 484.399ZM36.584 460.84H63V469.092H36.584L36.584 460.84ZM29.7725 469.58C28.6006 469.58 27.6403 469.157 26.8916 468.311C26.1429 467.464 25.7686 466.366 25.7686 465.015C25.7686 463.664 26.1429 462.565 26.8916 461.719C27.6403 460.872 28.6006 460.449 29.7725 460.449C30.9443 460.449 31.9046 460.872 32.6533 461.719C33.402 462.565 33.7764 463.664 33.7764 465.015C33.7764 466.366 33.402 467.464 32.6533 468.311C31.9046 469.157 30.9443 469.58 29.7725 469.58ZM36.584 441.846H42.2969V457.764H36.584V441.846ZM30.0166 454.419L30.0166 446.191H54.3818C55.0817 446.191 55.627 446.11 56.0176 445.947C56.3919 445.785 56.6605 445.508 56.8232 445.117C56.9697 444.71 57.043 444.173 57.043 443.506C57.043 443.034 57.0348 442.643 57.0186 442.334C56.986 442.025 56.9453 441.732 56.8965 441.455H62.7803C63.0081 442.155 63.179 442.887 63.293 443.652C63.4232 444.417 63.4883 445.231 63.4883 446.094C63.4883 447.852 63.2116 449.357 62.6582 450.61C62.1048 451.847 61.2341 452.791 60.0459 453.442C58.8578 454.093 57.3115 454.419 55.4072 454.419H30.0166ZM63.4883 425.781C63.4883 427.93 63.1546 429.85 62.4873 431.543C61.8037 433.236 60.8678 434.668 59.6797 435.84C58.4915 436.995 57.1244 437.883 55.5781 438.501C54.0319 439.103 52.3962 439.404 50.6709 439.404H49.7432C47.8063 439.404 46.016 439.136 44.3721 438.599C42.7119 438.062 41.2633 437.264 40.0264 436.206C38.7894 435.148 37.8291 433.822 37.1455 432.227C36.4456 430.632 36.0957 428.776 36.0957 426.66C36.0957 424.788 36.3968 423.112 36.999 421.631C37.6012 420.15 38.4639 418.897 39.5869 417.871C40.71 416.829 42.069 416.04 43.6641 415.503C45.2591 414.95 47.0495 414.673 49.0352 414.673H52.3799V436.255H47.2285V422.705H46.5938C45.7148 422.689 44.9661 422.843 44.3477 423.169C43.7292 423.478 43.2572 423.934 42.9316 424.536C42.6061 425.138 42.4434 425.871 42.4434 426.733C42.4434 427.629 42.6387 428.369 43.0293 428.955C43.4199 429.525 43.957 429.972 44.6406 430.298C45.3079 430.607 46.0811 430.827 46.96 430.957C47.8389 431.087 48.7666 431.152 49.7432 431.152H50.6709C51.6475 431.152 52.5345 431.022 53.332 430.762C54.1296 430.485 54.8132 430.094 55.3828 429.59C55.9362 429.069 56.3675 428.451 56.6768 427.734C56.986 427.002 57.1406 426.172 57.1406 425.244C57.1406 424.121 56.929 423.014 56.5059 421.924C56.0827 420.833 55.3828 419.897 54.4063 419.116L58.8496 415.381C59.6146 415.918 60.3551 416.683 61.0713 417.676C61.7874 418.652 62.3734 419.824 62.8291 421.191C63.2686 422.559 63.4883 424.089 63.4883 425.781ZM33.1416 431.616L25.4756 426.782V418.091L33.1416 424.902V431.616ZM55.5781 397.485C55.1224 397.485 54.7318 397.64 54.4063 397.949C54.0645 398.242 53.7552 398.763 53.4785 399.512C53.1856 400.26 52.8926 401.31 52.5996 402.661C52.3229 403.947 51.9567 405.16 51.501 406.299C51.0453 407.422 50.4919 408.407 49.8408 409.253C49.1898 410.099 48.4167 410.767 47.5215 411.255C46.6263 411.727 45.6009 411.963 44.4453 411.963C43.3223 411.963 42.2643 411.727 41.2715 411.255C40.2624 410.767 39.3753 410.059 38.6104 409.131C37.8291 408.187 37.2188 407.039 36.7793 405.689C36.3236 404.338 36.0957 402.8 36.0957 401.074C36.0957 398.698 36.4619 396.647 37.1943 394.922C37.9105 393.197 38.9196 391.87 40.2217 390.942C41.5075 389.998 42.9967 389.526 44.6895 389.526V397.754C44.0221 397.754 43.4525 397.868 42.9805 398.096C42.5085 398.307 42.1504 398.657 41.9063 399.146C41.6458 399.634 41.5156 400.285 41.5156 401.099C41.5156 401.668 41.6214 402.189 41.833 402.661C42.0446 403.117 42.3376 403.483 42.7119 403.76C43.0863 404.036 43.5257 404.175 44.0303 404.175C44.3883 404.175 44.7139 404.093 45.0068 403.931C45.2835 403.752 45.5439 403.483 45.7881 403.125C46.016 402.767 46.2275 402.311 46.4229 401.758C46.6019 401.204 46.7647 400.537 46.9111 399.756C47.2367 397.982 47.7005 396.322 48.3027 394.775C48.905 393.229 49.7594 391.976 50.8662 391.016C51.973 390.039 53.4622 389.551 55.334 389.551C56.5059 389.551 57.5882 389.819 58.5811 390.356C59.5576 390.894 60.4203 391.667 61.169 392.676C61.9014 393.685 62.471 394.897 62.8779 396.314C63.2848 397.73 63.4883 399.325 63.4883 401.099C63.4883 403.621 63.0407 405.754 62.1455 407.495C61.2341 409.237 60.0947 410.555 58.7275 411.45C57.3441 412.329 55.9443 412.769 54.5283 412.769L54.5283 405.103C55.3421 405.07 56.0094 404.875 56.5303 404.517C57.0511 404.142 57.4336 403.646 57.6777 403.027C57.9219 402.409 58.044 401.693 58.044 400.879C58.044 400.13 57.9382 399.512 57.7266 399.023C57.515 398.519 57.2301 398.136 56.8721 397.876C56.4977 397.616 56.0664 397.485 55.5781 397.485Z" fill="black"/>
<defs>
<filter id="filter0_d_27_9" x="67.1324" y="50" width="886.868" height="886.867" filterUnits="userSpaceOnUse" color-interpolation-filters="sRGB">
<feFlood flood-opacity="0" result="BackgroundImageFix"/>
<feColorMatrix in="SourceAlpha" type="matrix" values="0 0 0 0 0 0 0 0 0 0 0 0 0 0 0 0 0 0 127 0" result="hardAlpha"/>
<feOffset dy="4"/>
<feGaussianBlur stdDeviation="2"/>
<feComposite in2="hardAlpha" operator="out"/>
<feColorMatrix type="matrix" values="0 0 0 0 0 0 0 0 0 0 0 0 0 0 0 0 0 0 0.25 0"/>
<feBlend mode="normal" in2="BackgroundImageFix" result="effect1_dropShadow_27_9"/>
<feBlend mode="normal" in="SourceGraphic" in2="effect1_dropShadow_27_9" result="shape"/>
</filter>
<filter id="filter1_i_27_9" x="150" y="150" width="250" height="250" filterUnits="userSpaceOnUse" color-interpolation-filters="sRGB">
<feFlood flood-opacity="0" result="BackgroundImageFix"/>
<feBlend mode="normal" in="SourceGraphic" in2="BackgroundImageFix" result="shape"/>
<feColorMatrix in="SourceAlpha" type="matrix" values="0 0 0 0 0 0 0 0 0 0 0 0 0 0 0 0 0 0 127 0" result="hardAlpha"/>
<feOffset dx="-25" dy="-40"/>
<feComposite in2="hardAlpha" operator="arithmetic" k2="-1" k3="1"/>
<feColorMatrix type="matrix" values="0 0 0 0 0 0 0 0 0 0 0 0 0 0 0 0 0 0 0.25 0"/>
<feBlend mode="normal" in2="shape" result="effect1_innerShadow_27_9"/>
</filter>
<filter id="filter2_i_27_9" x="600" y="150" width="250" height="250" filterUnits="userSpaceOnUse" color-interpolation-filters="sRGB">
<feFlood flood-opacity="0" result="BackgroundImageFix"/>
<feBlend mode="normal" in="SourceGraphic" in2="BackgroundImageFix" result="shape"/>
<feColorMatrix in="SourceAlpha" type="matrix" values="0 0 0 0 0 0 0 0 0 0 0 0 0 0 0 0 0 0 127 0" result="hardAlpha"/>
<feOffset dx="-25" dy="-40"/>
<feComposite in2="hardAlpha" operator="arithmetic" k2="-1" k3="1"/>
<feColorMatrix type="matrix" values="0 0 0 0 0 0 0 0 0 0 0 0 0 0 0 0 0 0 0.25 0"/>
<feBlend mode="normal" in2="shape" result="effect1_innerShadow_27_9"/>
</filter>
<filter id="filter3_i_27_9" x="600" y="600" width="250" height="250" filterUnits="userSpaceOnUse" color-interpolation-filters="sRGB">
<feFlood flood-opacity="0" result="BackgroundImageFix"/>
<feBlend mode="normal" in="SourceGraphic" in2="BackgroundImageFix" result="shape"/>
<feColorMatrix in="SourceAlpha" type="matrix" values="0 0 0 0 0 0 0 0 0 0 0 0 0 0 0 0 0 0 127 0" result="hardAlpha"/>
<feOffset dx="-25" dy="-40"/>
<feComposite in2="hardAlpha" operator="arithmetic" k2="-1" k3="1"/>
<feColorMatrix type="matrix" values="0 0 0 0 0 0 0 0 0 0 0 0 0 0 0 0 0 0 0.25 0"/>
<feBlend mode="normal" in2="shape" result="effect1_innerShadow_27_9"/>
</filter>
</defs>
</svg>
